REM DIRINDEX 1\2,1\3,1\4,1\5
REM DIRNAME folder01,folder02,folder03,folder04,folder05
TITLE ""
FILE "Round-08-176-177.mp3" MP3
  TRACK 01 AUDIO
    TITLE "0:"
    INDEX 01 00:00:00
  TRACK 02 AUDIO
    TITLE "2:cjc093_1924"
    INDEX 01 00:00:01
  TRACK 03 AUDIO
    TITLE "0:"
    INDEX 01 00:01:13
  TRACK 04 AUDIO
    TITLE "3:cjc093_1925"
    INDEX 01 00:01:42
  TRACK 05 AUDIO
    TITLE "0:"
    INDEX 01 00:03:61
  TRACK 06 AUDIO
    TITLE "4:cjc093_1926"
    INDEX 01 00:04:03
  TRACK 07 AUDIO
    TITLE "0:"
    INDEX 01 00:06:65
  TRACK 08 AUDIO
    TITLE "3:cjc093_1927"
    INDEX 01 00:08:01
  TRACK 09 AUDIO
    TITLE "0:"
    INDEX 01 00:09:38
  TRACK 10 AUDIO
    TITLE "4:cjc093_1928"
    INDEX 01 00:09:59
  TRACK 11 AUDIO
    TITLE "0:"
    INDEX 01 00:12:71
  TRACK 12 AUDIO
    TITLE "2:cjc093_1929"
    INDEX 01 00:14:09
  TRACK 13 AUDIO
    TITLE "0:"
    INDEX 01 00:15:25
  TRACK 14 AUDIO
    TITLE "3:cjc093_1930"
    INDEX 01 00:15:64
  TRACK 15 AUDIO
    TITLE "0:"
    INDEX 01 00:18:13
  TRACK 16 AUDIO
    TITLE "4:cjc093_1931"
    INDEX 01 00:18:44
  TRACK 17 AUDIO
    TITLE "0:"
    INDEX 01 00:22:05
  TRACK 18 AUDIO
    TITLE "2:cjc093_1932"
    INDEX 01 00:23:16
  TRACK 19 AUDIO
    TITLE "0:"
    INDEX 01 00:24:31
  TRACK 20 AUDIO
    TITLE "3:cjc093_1933"
    INDEX 01 00:24:65
  TRACK 21 AUDIO
    TITLE "0:"
    INDEX 01 00:26:73
  TRACK 22 AUDIO
    TITLE "4:cjc093_1934"
    INDEX 01 00:27:20
  TRACK 23 AUDIO
    TITLE "0:"
    INDEX 01 00:29:64
  TRACK 24 AUDIO
    TITLE "4:cjc093_1935"
    INDEX 01 00:30:52
  TRACK 25 AUDIO
    TITLE "0:"
    INDEX 01 00:33:34
  TRACK 26 AUDIO
    TITLE "2:cjc093_1936"
    INDEX 01 00:34:47
  TRACK 27 AUDIO
    TITLE "0:"
    INDEX 01 00:35:59
  TRACK 28 AUDIO
    TITLE "3:cjc093_1937"
    INDEX 01 00:35:74
  TRACK 29 AUDIO
    TITLE "0:"
    INDEX 01 00:37:12
  TRACK 30 AUDIO
    TITLE "4:cjc093_1938"
    INDEX 01 00:37:52
  TRACK 31 AUDIO
    TITLE "0:"
    INDEX 01 00:41:08
  TRACK 32 AUDIO
    TITLE "2:cjc093_1939"
    INDEX 01 00:42:16
  TRACK 33 AUDIO
    TITLE "0:"
    INDEX 01 00:43:31
  TRACK 34 AUDIO
    TITLE "3:cjc093_1940"
    INDEX 01 00:44:01
  TRACK 35 AUDIO
    TITLE "0:"
    INDEX 01 00:45:14
  TRACK 36 AUDIO
    TITLE "4:cjc093_1941"
    INDEX 01 00:45:49
  TRACK 37 AUDIO
    TITLE "0:"
    INDEX 01 00:49:47
  TRACK 38 AUDIO
    TITLE "2:cjc093_1942"
    INDEX 01 00:50:50
  TRACK 39 AUDIO
    TITLE "0:"
    INDEX 01 00:51:67
  TRACK 40 AUDIO
    TITLE "3:cjc093_1943"
    INDEX 01 00:52:37
  TRACK 41 AUDIO
    TITLE "0:"
    INDEX 01 00:53:74
  TRACK 42 AUDIO
    TITLE "4:cjc093_1944"
    INDEX 01 00:54:42
  TRACK 43 AUDIO
    TITLE "0:"
    INDEX 01 00:59:08
  TRACK 44 AUDIO
    TITLE "2:cjc093_1945"
    INDEX 01 01:00:21
  TRACK 45 AUDIO
    TITLE "0:"
    INDEX 01 01:01:25
  TRACK 46 AUDIO
    TITLE "3:cjc093_1946"
    INDEX 01 01:02:06
  TRACK 47 AUDIO
    TITLE "0:"
    INDEX 01 01:04:25
  TRACK 48 AUDIO
    TITLE "4:cjc093_1947"
    INDEX 01 01:04:50
  TRACK 49 AUDIO
    TITLE "0:"
    INDEX 01 01:07:23
  TRACK 50 AUDIO
    TITLE "3:cjc093_1948"
    INDEX 01 01:08:38
  TRACK 51 AUDIO
    TITLE "0:"
    INDEX 01 01:09:57
  TRACK 52 AUDIO
    TITLE "4:cjc093_1949"
    INDEX 01 01:09:73
  TRACK 53 AUDIO
    TITLE "0:"
    INDEX 01 01:13:26
  TRACK 54 AUDIO
    TITLE "3:cjc093_1950"
    INDEX 01 01:14:35
  TRACK 55 AUDIO
    TITLE "0:"
    INDEX 01 01:16:12
  TRACK 56 AUDIO
    TITLE "4:cjc093_1951"
    INDEX 01 01:16:36
  TRACK 57 AUDIO
    TITLE "0:"
    INDEX 01 01:20:00
  TRACK 58 AUDIO
    TITLE "2:cjc093_1952"
    INDEX 01 01:21:10
  TRACK 59 AUDIO
    TITLE "0:"
    INDEX 01 01:22:23
  TRACK 60 AUDIO
    TITLE "3:cjc093_1953"
    INDEX 01 01:22:56
  TRACK 61 AUDIO
    TITLE "0:"
    INDEX 01 01:25:08
  TRACK 62 AUDIO
    TITLE "4:cjc093_1954"
    INDEX 01 01:25:45
  TRACK 63 AUDIO
    TITLE "0:"
    INDEX 01 01:28:14
  TRACK 64 AUDIO
    TITLE "3:cjc093_1955"
    INDEX 01 01:29:27
  TRACK 65 AUDIO
    TITLE "0:"
    INDEX 01 01:30:73
  TRACK 66 AUDIO
    TITLE "4:cjc093_1956"
    INDEX 01 01:31:12
  TRACK 67 AUDIO
    TITLE "0:"
    INDEX 01 01:34:26
